<?xml version="1.0" encoding="utf-8"?>
<!-- Generator: Adobe Illustrator 27.2.0, SVG Export Plug-In . SVG Version: 6.00 Build 0)  -->
<svg version="1.1" id="Camada_1" xmlns="http://www.w3.org/2000/svg" xmlns:xlink="http://www.w3.org/1999/xlink" x="0px" y="0px"
	 viewBox="0 0 136 32" style="enable-background:new 0 0 136 32;" xml:space="preserve">
<style type="text/css">
	.st0{fill:#2D2D2D;}
</style>
<g>
	<path class="st0" d="M19.5,25.2c-1.8,1.7-3.9,2.5-6.2,2.5S8.9,27,7.4,25.5C5.8,24,5,22,5,19.6s0.8-4.4,2.4-5.9
		c1.6-1.5,3.5-2.2,5.6-2.2c2.2,0,4,0.7,5.5,2c1.5,1.3,2.3,3.1,2.3,5.4v2.3H9.4c0.1,0.9,0.6,1.6,1.3,2.1c0.8,0.5,1.6,0.8,2.6,0.8
		c1.5,0,2.8-0.5,3.8-1.5L19.5,25.2z M15.3,15.9c-0.6-0.5-1.3-0.8-2.2-0.8s-1.7,0.3-2.4,0.8C10,16.4,9.6,17.1,9.5,18h6.9
		C16.3,17.1,15.9,16.4,15.3,15.9z"/>
	<path class="st0" d="M28.4,27.5H24V5.8h4.4V27.5z"/>
	<path class="st0" d="M46.1,25.2c-1.8,1.7-3.9,2.5-6.2,2.5S35.5,27,34,25.5c-1.6-1.5-2.3-3.4-2.3-5.9s0.8-4.4,2.4-5.9
		c1.6-1.5,3.5-2.2,5.6-2.2c2.2,0,4,0.7,5.5,2c1.5,1.3,2.3,3.1,2.3,5.4v2.3H36c0.1,0.9,0.6,1.6,1.3,2.1c0.8,0.5,1.6,0.8,2.6,0.8
		c1.5,0,2.8-0.5,3.8-1.5L46.1,25.2z M41.9,15.9c-0.6-0.5-1.3-0.8-2.2-0.8s-1.7,0.3-2.4,0.8c-0.7,0.5-1.1,1.2-1.3,2.1H43
		C42.9,17.1,42.5,16.4,41.9,15.9z"/>
	<path class="st0" d="M55.6,14.9v7c0,0.6,0.2,1.1,0.5,1.4s0.7,0.5,1.1,0.5c0.8,0,1.5-0.4,2.1-1.1l1.6,3.1c-1.4,1.2-2.8,1.9-4.3,1.9
		c-1.5,0-2.8-0.5-3.8-1.5c-1-1-1.6-2.3-1.6-4.1v-7.2h-1.8v-3.2h1.8V7h4.4v4.7h3.8v3.2H55.6z"/>
	<path class="st0" d="M71.5,15.6c-1.3,0-2.3,0.5-2.9,1.4c-0.6,0.9-1,2.1-1,3.7v6.8h-4.4V11.7h4.4v2.1c0.6-0.6,1.3-1.2,2.1-1.6
		c0.8-0.4,1.7-0.7,2.6-0.7l0,4.1H71.5z"/>
	<path class="st0" d="M75.6,9.7c-0.5-0.5-0.7-1.1-0.7-1.8s0.2-1.3,0.7-1.8c0.5-0.5,1.1-0.7,1.8-0.7s1.3,0.2,1.8,0.7
		C79.8,6.6,80,7.2,80,7.9s-0.2,1.3-0.7,1.8c-0.5,0.5-1.1,0.7-1.8,0.7S76.1,10.2,75.6,9.7z M79.6,27.5h-4.4V11.7h4.4V27.5z"/>
	<path class="st0" d="M97.4,21.3c1.7-1.4,2.6-3.3,2.6-5.5l4.2,0.5c-0.1,3.5-1.4,6.2-3.9,8.2c-2.4,2-5.1,2.9-7.9,2.6
		c-2.8-0.2-5.2-1.5-7.1-3.9s-2.7-5-2.4-7.8c0.3-2.9,1.6-5.3,4-7.2c2.6-2.1,5.6-2.9,8.9-2.4l-0.2,4.3c-2.3-0.5-4.2,0-5.9,1.3
		c-1.3,1.1-2.1,2.4-2.3,4.1c-0.2,1.6,0.3,3.2,1.5,4.7c1.2,1.5,2.6,2.3,4.2,2.4C94.7,22.8,96.1,22.4,97.4,21.3z"/>
	<path class="st0" d="M118.4,27.5h-4.1v-1.9c-1.1,1.4-2.5,2.1-4.2,2.1s-3.1-0.5-4.2-1.4c-1.1-1-1.7-2.2-1.7-3.9
		c0-1.6,0.6-2.8,1.8-3.6c1.2-0.8,2.8-1.2,4.8-1.2h3.3v-0.1c0-1.7-0.9-2.5-2.7-2.5c-0.8,0-1.6,0.2-2.4,0.5c-0.8,0.3-1.6,0.7-2.1,1.1
		l-2-2.8c2.1-1.5,4.4-2.2,7.1-2.2c1.9,0,3.5,0.5,4.7,1.4c1.2,1,1.8,2.5,1.8,4.5V27.5z M114,21.5v-0.8h-2.7c-1.8,0-2.6,0.5-2.6,1.6
		c0,0.6,0.2,1,0.6,1.3c0.4,0.3,1,0.5,1.8,0.5s1.5-0.2,2.1-0.7S114,22.3,114,21.5z"/>
	<path class="st0" d="M130.6,15.6c-1.3,0-2.3,0.5-2.9,1.4s-1,2.1-1,3.7v6.8h-4.4V11.7h4.4v2.1c0.6-0.6,1.3-1.2,2.1-1.6
		c0.8-0.4,1.7-0.7,2.6-0.7l0,4.1H130.6z"/>
</g>
</svg>
